<?xml version="1.0" standalone="no"?>
<!DOCTYPE svg PUBLIC "-//W3C//DTD SVG 20010904//EN"
 "http://www.w3.org/TR/2001/REC-SVG-20010904/DTD/svg10.dtd">
<svg version="1.0" xmlns="http://www.w3.org/2000/svg"
 width="200.000000pt" height="200.000000pt" viewBox="0 0 200.000000 200.000000"
 preserveAspectRatio="xMidYMid meet">
<metadata>
Created by potrace 1.14, written by Peter Selinger 2001-2017
</metadata>
<g transform="translate(0.000000,200.000000) scale(0.100000,-0.100000)"
fill="#000000" stroke="none">
<path d="M1520 1753 c-8 -3 -28 -11 -45 -18 -16 -7 -82 -26 -145 -41 -63 -15
-125 -34 -138 -42 -53 -34 -36 -107 36 -143 61 -32 84 -73 87 -155 2 -71 0
-73 -61 -48 -45 19 -189 25 -273 12 -31 -5 -82 -21 -116 -35 -43 -18 -81 -26
-135 -28 -41 -2 -112 -5 -157 -9 l-83 -5 0 26 c0 48 23 157 41 201 14 32 28
47 55 58 33 14 39 14 72 -4 21 -10 51 -39 69 -63 60 -84 89 -109 125 -109 18
0 43 7 54 15 26 17 47 90 47 154 -1 46 -34 131 -52 131 -4 0 -18 9 -31 20 -79
68 -301 57 -431 -22 -25 -15 -49 -28 -52 -28 -9 0 -70 -62 -103 -105 -34 -44
-89 -156 -98 -198 -3 -15 -8 -39 -11 -53 -6 -25 -7 -25 -74 -18 -88 8 -98 -1
-96 -85 1 -34 7 -67 13 -73 6 -6 41 -10 81 -9 39 1 71 -2 72 -6 12 -95 8 -437
-7 -572 -5 -49 -10 -58 -65 -109 -64 -60 -72 -84 -41 -123 20 -24 52 -28 232
-28 47 0 99 0 115 0 17 0 62 -1 100 -1 71 -2 124 11 126 30 2 13 2 35 0 58 0
10 -13 25 -29 34 -44 27 -79 61 -97 98 -16 31 -18 67 -18 313 0 227 3 281 14
288 11 7 139 9 139 2 0 -1 -11 -24 -25 -51 -54 -108 -68 -364 -26 -470 60
-151 119 -224 219 -270 48 -23 71 -27 148 -27 89 0 93 1 187 49 52 26 105 57
116 68 28 25 40 16 36 -29 -5 -77 44 -121 102 -90 44 23 101 44 193 71 129 37
140 39 140 22 0 -8 23 -35 51 -60 67 -60 89 -57 166 22 59 60 58 98 -4 162
-68 70 -100 73 -162 16 -50 -47 -44 -47 -122 1 -31 18 -38 29 -45 70 -14 84
-17 309 -9 593 14 471 14 554 -3 582 -9 16 -21 28 -27 29 -5 0 -17 2 -25 3 -8
2 -22 1 -30 -1z m-365 -624 c129 -41 182 -248 121 -474 -21 -79 -43 -118 -85
-147 -151 -107 -302 49 -299 310 2 110 19 179 58 237 61 88 107 105 205 74z"/>
</g>
</svg>
